<?xml version="1.0" encoding="UTF-8"?><svg id="Layer_1" xmlns="http://www.w3.org/2000/svg" viewBox="0 0 480.06 182.57"><defs><style>.cls-1{fill:#221f20;}.cls-1,.cls-2{stroke-width:0px;}.cls-2{fill:#fff;}</style></defs><path class="cls-1" d="m152.68,58.09c-.55,0-.55.55,0,.88l1.56.85c.66-.57,1.32-1.14,1.97-1.71l-3.53-.02Zm53.7,0l-27.51.11c-.26.26-.51.53-.77.77l18.25,1.32,10.59,15.99c.44.77.88.77.88,0v-16.87c0-.33-1.1-1.32-1.43-1.32Zm4.3,52.04l-12.24,19.08-19.08,1.32-1.32-1.32v-34.84l16.21.88,6.62,9.7c.33.44.88.44.88-.11v-21.39c0-.77-.44-.77-.88-.22l-6.62,9.48-16.21.88v-34.57c-4.72,4.78-10.25,9.26-16.26,13.4-.22,5.27-.39,11.78-.39,21.06,0,14.44.44,24.48.77,31.98l-9.59,5.07c-.55.33-.66.88,0,.88l26.68-.11,28.78.11c.55-.11,1.65-1.21,1.87-1.87l1.65-19.3c.11-.77-.44-.77-.88-.11Z"/><path class="cls-1" d="m227.87,82.35c-4.74,0-8.82,3.75-8.82,8.82s4.08,8.6,8.82,8.6,8.71-3.75,8.71-8.6-3.75-8.82-8.71-8.82Zm0,33.19c-4.74,0-8.82,3.75-8.82,8.82s4.08,8.6,8.82,8.6,8.71-3.75,8.71-8.6-3.75-8.82-8.71-8.82Z"/><path class="cls-1" d="m313.99,58.09h-21.72c-.55,0-.55.55,0,.88l9.48,5.62-18.52,48.63c-2.32-6.28-5.62-14.33-10.03-25.03-4.3-10.03-7.83-18.19-10.7-24.15l9.7-5.07c.55-.33.55-.88-.11-.88h-35.61c-.55,0-.55.55-.11.88l8.71,5.07c3.09,7.94,7.39,18.63,13.45,32.64,6.28,14.22,12.57,27.34,16.54,34.95.44.77.99.99,1.43,0l28.56-67.04,8.38-5.22.66-.4c.55-.33.55-.88-.11-.88Z"/><path class="cls-1" d="m347.4,130.53l-9.7-5.07c.33-7.5.77-17.53.77-31.98s-.44-22.49-.77-29.44l8.73-4.61.86-.46c.55-.33.55-.88.11-.88h-34.73c-.55,0-.55.55,0,.88l.77.4,8.71,4.67c-.33,6.95-.77,14.66-.77,29.44s.44,24.48.77,31.98l-9.59,5.07c-.55.33-.66.88,0,.88h34.84c.55,0,.44-.55,0-.88Z"/><path class="cls-1" d="m423.48,58.11l-2.32-.02h-19.63c-.55,0-.55.55,0,.88l9.48,5.62-18.52,48.63c-2.32-6.28-5.62-14.33-10.03-25.03-4.3-10.03-7.83-18.19-10.7-24.15l9.7-5.07c.55-.33.55-.88-.11-.88h-35.61c-.55,0-.55.55-.11.88l.79.46,7.92,4.61c3.09,7.94,7.39,18.63,13.45,32.64,6.28,14.22,12.57,27.34,16.54,34.95.44.77.99.99,1.43,0l28.56-67.04,8.03-4.98,1.01-.64c.48-.29.53-.74.11-.86Z"/><path class="cls-1" d="m479.16,110.13l-12.24,19.08-19.08,1.32-1.32-1.32v-34.84l16.21.88,6.62,9.7c.33.44.88.44.88-.11v-21.39c0-.77-.44-.77-.88-.22l-6.62,9.48-16.21.88v-34.62l18.3,1.32,10.59,15.99c.44.77.88.77.88,0v-16.87c0-.33-1.1-1.32-1.43-1.32l-28.34.11-23.04-.09-2.32-.02c-.55,0-.55.55,0,.88l1.19.64,8.29,4.43c-.33,6.95-.77,14.66-.77,29.44s.44,24.48.77,31.98l-9.59,5.07c-.55.33-.66.88,0,.88l26.68-.11,28.78.11c.55-.11,1.65-1.21,1.87-1.87l1.65-19.3c.11-.77-.44-.77-.88-.11Z"/><path class="cls-1" d="m265.45,171.62c-2.68,1.76-5.37,3.53-8.03,5.27-2.59,1.71-7.33,2.37-10.46,2.98-7.87,1.51-15.86,2.39-23.91,2.63-1.51.04-3.01.07-4.54.07-14.39,0-28.8-2.06-42.43-6.16-5.6-1.69-11.21-2.65-16.76-4.52-5.72-1.93-11.36-4.04-16.7-6.67-7.77-3.79-14.9-8.58-21.52-13.82-8.67-6.84-16.59-14.55-22.66-23.32-2.83-4.1-6.21-8.95-7.26-13.71-1.05-4.74-1.65-8.31-4.78-12.64-.26-.37-.74-.59-1.23-.59-.07,0-.15.02-.24.02-3.27.46-6.36.62-9.1.62-5.33,0-7.04-1.32-7.04-3.2,0-2.44,4.7-4.5,9.83-4.5,3.16,0,5.97.97,8.42,2.46.26.17.55.24.85.24.11,0,.24,0,.35-.04,19.11-4.58,47.49-18.47,67.72-36.02,1.01-.86,1.98-1.73,2.94-2.63,12.77-11.76,21.65-24.99,21.65-38.06,0-4.87-2.77-8.62-9.83-8.62-24.57,0-76.93,39.36-93.37,57.54-35.27,38.81-46.79,72.92-50.85,72.92-2.79,0-7.28-4.3-7.28-9.56,0-23.25,92.11-114.52,92.11-124.83,0-2.63-1.51-4.69-5.57-4.69C71.36,2.81,14.32,37.49,14.32,68.6c0,15.93,9.39,18.56,9.39,19.68,0,.75-.62,1.3-2.13,1.3S0,84.72,0,63.55C0,30.93,66.23,0,105.34,0c6.84,0,11.54,3.36,11.54,9.17,0,10.31-28.85,40.69-41.66,55.5l.42.37c16.87-15.36,67.94-56.99,97.43-56.99,10.9,0,19.87,5.44,19.87,16.87,0,12.02-6.54,23.28-16.67,33.28-4.25,4.19-9.11,8.16-14.41,11.87-20.67,14.54-47.67,25.1-68.07,29.53-.99.22-1.43,1.23-.83,1.97,3.88,4.63,13.6,18.71,15.22,20.47,6.76,7.44,14.41,14.28,22.73,20.4,16.39,12.06,35.43,21.32,55.83,26.92.33.09.64.18.96.26,15.4,4.15,31.52,6.21,47.61,6.21h1.54c8.4-.07,16.72-.09,24.5-3.23,1.16-.46,2.37-.99,3.62-.99.17,0,.33,0,.48.02Z"/><path class="cls-2" d="m178.04,58.97v.06s.04-.02.06-.06h-.06Z"/></svg>