<?xml version="1.0" encoding="utf-8"?>
<!-- Generator: Adobe Illustrator 28.0.0, SVG Export Plug-In . SVG Version: 6.00 Build 0)  -->
<svg version="1.1" id="Layer_1" xmlns="http://www.w3.org/2000/svg" xmlns:xlink="http://www.w3.org/1999/xlink" x="0px" y="0px"
	 viewBox="0 0 480.1 182.6" style="enable-background:new 0 0 480.1 182.6;" xml:space="preserve">
<style type="text/css">
	.st0{fill:#FFFFFF;}
</style>
<path class="st0" d="M152.7,58.1c-0.6,0-0.6,0.5,0,0.9l1.6,0.8c0.7-0.6,1.3-1.1,2-1.7L152.7,58.1z M206.4,58.1l-27.5,0.1
	c-0.3,0.3-0.5,0.5-0.8,0.8l18.2,1.3l10.6,16c0.4,0.8,0.9,0.8,0.9,0V59.4C207.8,59.1,206.7,58.1,206.4,58.1L206.4,58.1z M210.7,110.1
	l-12.2,19.1l-19.1,1.3l-1.3-1.3V94.4l16.2,0.9l6.6,9.7c0.3,0.4,0.9,0.4,0.9-0.1V83.5c0-0.8-0.4-0.8-0.9-0.2l-6.6,9.5L178,93.6V59
	c-4.7,4.8-10.2,9.3-16.3,13.4c-0.2,5.3-0.4,11.8-0.4,21.1c0,14.4,0.4,24.5,0.8,32l-9.6,5.1c-0.6,0.3-0.7,0.9,0,0.9l26.7-0.1
	l28.8,0.1c0.6-0.1,1.6-1.2,1.9-1.9l1.6-19.3C211.7,109.5,211.1,109.5,210.7,110.1L210.7,110.1z"/>
<path class="st0" d="M227.9,82.3c-4.7,0-8.8,3.8-8.8,8.8s4.1,8.6,8.8,8.6s8.7-3.8,8.7-8.6S232.8,82.3,227.9,82.3z M227.9,115.5
	c-4.7,0-8.8,3.8-8.8,8.8s4.1,8.6,8.8,8.6s8.7-3.8,8.7-8.6S232.8,115.5,227.9,115.5z"/>
<path class="st0" d="M314,58.1h-21.7c-0.5,0-0.5,0.5,0,0.9l9.5,5.6l-18.5,48.6c-2.3-6.3-5.6-14.3-10-25c-4.3-10-7.8-18.2-10.7-24.2
	l9.7-5.1c0.5-0.3,0.5-0.9-0.1-0.9h-35.6c-0.6,0-0.6,0.5-0.1,0.9l8.7,5.1c3.1,7.9,7.4,18.6,13.4,32.6c6.3,14.2,12.6,27.3,16.5,35
	c0.4,0.8,1,1,1.4,0l28.6-67l8.4-5.2l0.7-0.4C314.7,58.6,314.7,58.1,314,58.1L314,58.1z"/>
<path class="st0" d="M347.4,130.5l-9.7-5.1c0.3-7.5,0.8-17.5,0.8-32S338,71,337.7,64l8.7-4.6l0.9-0.5c0.5-0.3,0.5-0.9,0.1-0.9h-34.7
	c-0.5,0-0.5,0.5,0,0.9l0.8,0.4l8.7,4.7c-0.3,6.9-0.8,14.7-0.8,29.4s0.4,24.5,0.8,32l-9.6,5.1c-0.5,0.3-0.7,0.9,0,0.9h34.8
	C347.9,131.4,347.8,130.9,347.4,130.5L347.4,130.5z"/>
<path class="st0" d="M423.5,58.1l-2.3,0h-19.6c-0.5,0-0.5,0.5,0,0.9l9.5,5.6l-18.5,48.6c-2.3-6.3-5.6-14.3-10-25
	c-4.3-10-7.8-18.2-10.7-24.2l9.7-5.1c0.5-0.3,0.5-0.9-0.1-0.9h-35.6c-0.5,0-0.5,0.5-0.1,0.9l0.8,0.5l7.9,4.6
	c3.1,7.9,7.4,18.6,13.5,32.6c6.3,14.2,12.6,27.3,16.5,35c0.4,0.8,1,1,1.4,0l28.6-67l8-5l1-0.6C423.8,58.7,423.9,58.2,423.5,58.1
	L423.5,58.1z"/>
<path class="st0" d="M479.2,110.1l-12.2,19.1l-19.1,1.3l-1.3-1.3V94.4l16.2,0.9l6.6,9.7c0.3,0.4,0.9,0.4,0.9-0.1V83.4
	c0-0.8-0.4-0.8-0.9-0.2l-6.6,9.5l-16.2,0.9V59l18.3,1.3l10.6,16c0.4,0.8,0.9,0.8,0.9,0V59.4c0-0.3-1.1-1.3-1.4-1.3l-28.3,0.1
	l-23-0.1l-2.3,0c-0.5,0-0.5,0.5,0,0.9l1.2,0.6l8.3,4.4c-0.3,6.9-0.8,14.7-0.8,29.4s0.4,24.5,0.8,32l-9.6,5.1c-0.5,0.3-0.7,0.9,0,0.9
	l26.7-0.1l28.8,0.1c0.5-0.1,1.6-1.2,1.9-1.9l1.6-19.3C480.1,109.5,479.6,109.5,479.2,110.1L479.2,110.1z"/>
<path class="st0" d="M265.5,171.6c-2.7,1.8-5.4,3.5-8,5.3c-2.6,1.7-7.3,2.4-10.5,3c-7.9,1.5-15.9,2.4-23.9,2.6c-1.5,0-3,0.1-4.5,0.1
	c-14.4,0-28.8-2.1-42.4-6.2c-5.6-1.7-11.2-2.6-16.8-4.5c-5.7-1.9-11.4-4-16.7-6.7c-7.8-3.8-14.9-8.6-21.5-13.8
	c-8.7-6.8-16.6-14.6-22.7-23.3c-2.8-4.1-6.2-8.9-7.3-13.7c-1.1-4.7-1.7-8.3-4.8-12.6c-0.3-0.4-0.7-0.6-1.2-0.6c-0.1,0-0.2,0-0.2,0
	c-3.3,0.5-6.4,0.6-9.1,0.6c-5.3,0-7-1.3-7-3.2c0-2.4,4.7-4.5,9.8-4.5c3.2,0,6,1,8.4,2.5c0.3,0.2,0.6,0.2,0.8,0.2c0.1,0,0.2,0,0.3,0
	c19.1-4.6,47.5-18.5,67.7-36c1-0.9,2-1.7,2.9-2.6c12.8-11.8,21.6-25,21.6-38.1c0-4.9-2.8-8.6-9.8-8.6c-24.6,0-76.9,39.4-93.4,57.5
	c-35.3,38.8-46.8,72.9-50.8,72.9c-2.8,0-7.3-4.3-7.3-9.6c0-23.2,92.1-114.5,92.1-124.8c0-2.6-1.5-4.7-5.6-4.7
	c-34.4,0-91.4,34.7-91.4,65.8c0,15.9,9.4,18.6,9.4,19.7c0,0.8-0.6,1.3-2.1,1.3S0,84.7,0,63.5C0,30.9,66.2,0,105.3,0
	c6.8,0,11.5,3.4,11.5,9.2c0,10.3-28.8,40.7-41.7,55.5l0.4,0.4c16.9-15.4,67.9-57,97.4-57c10.9,0,19.9,5.4,19.9,16.9
	c0,12-6.5,23.3-16.7,33.3c-4.2,4.2-9.1,8.2-14.4,11.9c-20.7,14.5-47.7,25.1-68.1,29.5c-1,0.2-1.4,1.2-0.8,2
	c3.9,4.6,13.6,18.7,15.2,20.5c6.8,7.4,14.4,14.3,22.7,20.4c16.4,12.1,35.4,21.3,55.8,26.9c0.3,0.1,0.6,0.2,1,0.3
	c15.4,4.1,31.5,6.2,47.6,6.2h1.5c8.4-0.1,16.7-0.1,24.5-3.2c1.2-0.5,2.4-1,3.6-1C265.1,171.6,265.3,171.6,265.5,171.6L265.5,171.6z"
	/>
<path class="st0" d="M178,59L178,59C178,59,178.1,59,178,59L178,59z"/>
</svg>
