<?xml version="1.0" encoding="UTF-8"?><svg id="Layer_1" xmlns="http://www.w3.org/2000/svg" viewBox="0 0 266.64 266.64"><defs><style>.cls-1{stroke-width:0px;}</style></defs><path class="cls-1" d="m157.59,198.06c2.25,1.1,4.64,2.13,7.47,3.19-9.63,4.52-20.39,7.03-31.74,7.03-41.4,0-74.96-33.56-74.96-74.96,0-1.73.06-3.45.18-5.16,1.69,14.17,15.06,19,18.83,19s5.81-2.64,5.81-5.25c0-2.37-1.7-3.61-2.52-4.21-1.35-.98-3.86-2.81-3.86-9.14,0-17.36,34.12-39.23,56.13-40.25-3.17,4.77-12.34,15.4-19.94,24.21-24.36,28.23-41.59,49-41.59,59.3,0,5.58,4.52,10.86,9.3,10.86,3.53,0,5.05-2.73,9.1-10.01,3.31-5.96,8.09-14.55,15.28-24.48-.03.24-.05.48-.05.74,0,1.96.9,6.53,9.14,6.53,1.55,0,3.1-.07,4.62-.22.66,1.36.96,2.73,1.37,4.64l.16.7c.88,4.02,3.45,7.74,5.51,10.73l.09.13c4.04,5.84,9.37,11.34,16.26,16.76,5.25,4.16,10.3,7.39,15.39,9.87Z"/><path class="cls-1" d="m178.59,94.12c2.3,0,2.3.56,2.3,1.49,0,6.79-4.59,14.62-13.32,22.65-.6.56-1.21,1.1-1.86,1.66-13.06,11.33-31.14,20.08-42.89,23.19-2.15-1.08-4.4-1.62-6.74-1.62-2.61,0-5.22.58-7.26,1.7,2.87-3.69,6.06-7.54,9.62-11.46,11.5-12.71,45.85-37.62,60.14-37.62Z"/><path class="cls-1" d="m60.38,115.98c7.82-33.05,37.51-57.62,72.94-57.62,23.65,0,44.74,10.94,58.47,28.05-3.01-2.12-6.98-3.31-11.61-3.31-11.08,0-25.52,7.47-38.32,15.94,3.05-4.56,4.55-8.03,4.55-10.82,0-6.24-5.01-10.58-12.2-10.58-25.07,0-64.52,17.07-73.83,38.34Z"/><path class="cls-1" d="m208.28,133.32c0,22.68-10.07,43.01-26,56.76-10.09-3.64-19.69-8.73-28.12-14.93-5.46-4.01-10.44-8.47-14.78-13.25-.42-.47-2.17-2.92-3.59-4.88-1.06-1.46-2.17-3.01-3.22-4.44,12.45-3.34,28.83-9.82,42.51-19.45,3.91-2.74,7.39-5.61,10.34-8.52,8.36-8.27,12.61-16.91,12.61-25.7,0-1.56-.19-3.04-.58-4.41,6.87,11.32,10.82,24.61,10.82,38.83Z"/><g id="qyqMJJ.tif"><path class="cls-1" d="m244.23,10.98c-32.13,14.8-65.8,22.68-101.27,24.24-26.15,1.15-51.01,8.28-71.77,24.72-.75.58-1.48,1.19-2.22,1.81-1.32,1.1-2.6,2.23-3.81,3.4-1.16,1.21-2.29,2.49-3.4,3.81-.62.74-1.23,1.47-1.81,2.22-16.44,20.76-23.56,45.63-24.72,71.77-1.57,35.47-9.44,69.14-24.24,101.27-3.35,7.23-7.01,14.32-10.98,22.41,1.64-.74,2.32-1.01,2.95-1.35,34.15-18.06,70.06-30.58,108.85-32.62,28.18-1.48,55.33-6.09,79.13-22.1,3.99-2.68,7.62-5.63,10.91-8.75,3.12-3.29,6.07-6.92,8.75-10.91,16.01-23.8,20.62-50.95,22.1-79.13,2.04-38.78,14.56-74.7,32.62-108.85.34-.63.61-1.31,1.35-2.95-8.09,3.97-15.18,7.63-22.41,10.98Zm-34.12,48.73c1.02,13.69.74,27.58,3.06,41.04,5.75,33.44,2.04,64.09-20.24,88.24-.68.66-1.36,1.29-2.03,1.91-.62.67-1.25,1.35-1.91,2.03-24.15,22.28-54.8,25.99-88.24,20.24-13.46-2.32-27.35-2.04-41.04-3.06-1.13-.08-3.09-.93-3.15-1.58-2.05-22.61-5.41-45.21-5.56-67.86-.19-27.98,9.25-49.87,24.63-65.04,15.17-15.39,37.06-24.83,65.04-24.63,22.64.15,45.25,3.51,67.86,5.56.64.06,1.49,2.03,1.58,3.15Z"/></g></svg>