<?xml version="1.0" encoding="utf-8"?>
<!-- Generator: Adobe Illustrator 26.2.1, SVG Export Plug-In . SVG Version: 6.00 Build 0)  -->
<svg version="1.1" id="Layer_1" xmlns="http://www.w3.org/2000/svg" xmlns:xlink="http://www.w3.org/1999/xlink" x="0px" y="0px"
	 viewBox="0 0 500 107.1" style="enable-background:new 0 0 500 107.1;" xml:space="preserve">
<style type="text/css">
	.st0{fill:#FFFFFF;}
</style>
<g>
	<path class="st0" d="M161.57,68.58l-1.41,7.74h-26.43h-5.31l26.18-44.29h-9.98c-7.04,0-11.07,4.22-14.02,7.49l-0.32-0.19l2.05-7.81
		h27.91l-26.24,44.35h11.84c7.04,0,12.35-3.65,15.36-7.55L161.57,68.58z"/>
	<path class="st0" d="M196.58,66.14c-0.39,4.54-4.42,10.56-13.5,10.56c-8.83,0-17.34-4.35-17.6-14.91
		c-0.32-11.07,9.73-15.87,16.77-16.26c5.44-0.26,12.93,2.37,13.82,10.11c-0.57,0-4.54,0-4.54,0h-1.41
		C193.76,56.61,197.09,60.32,196.58,66.14z M187.49,55.65h-16.57c-0.83,3.39-0.64,7.17,0.45,10.24c2.37,6.72,7.17,9.67,13.7,9.4
		c5.5-0.26,10.3-4.03,10.94-9.02C196.77,59.62,192.36,55.65,187.49,55.65z M171.04,55.13h20.42c-0.83-5.57-5.82-10.05-12.09-8.83
		C175.01,47.13,172.19,50.79,171.04,55.13z"/>
	<path class="st0" d="M224.48,49.31l-3.91,5.5l-0.45-0.26c-0.13-3.65-1.92-8.38-5.38-7.87c-6.27,0.96-7.1,17.47-7.1,22.91v2.5
		c0,2.24,0.45,3.2,1.41,3.78c0,0.13,0,0.45,0,0.45h-7.94c0,0,0-0.32,0-0.45c1.02-0.57,1.47-1.54,1.47-3.78V50.47
		c0-2.24-0.19-2.88-1.47-3.07c0-0.13,0-0.45,0-0.45l6.02-1.41h0.51V62.7c0.64-7.74,2.43-17.15,9.22-17.15
		C220.32,45.54,222.3,46.75,224.48,49.31z"/>
	<path class="st0" d="M256.87,76.32h-6.53V60.77c-0.83,7.23-3.01,15.94-11.33,15.94c-5.89,0-10.56-3.71-10.56-11.26V50.47
		c0-2.24-0.19-2.88-1.41-3.07c0-0.13,0-0.45,0-0.45l6.02-1.41h0.45V66.4c0,5.57,2.88,10.18,8.38,9.15
		c7.17-1.41,8.45-14.78,8.45-20.16v-4.93c0-2.24-0.19-2.88-1.41-3.07c0-0.13,0-0.45,0-0.45l6.02-1.41h0.45v26.56
		c0,2.24,0.45,3.2,1.47,3.78C256.87,76,256.87,76.32,256.87,76.32z"/>
	<path class="st0" d="M269.22,75.87c0,0.13,0,0.45,0,0.45h-7.87c0,0,0-0.32,0-0.45c0.96-0.57,1.41-1.54,1.41-3.78V35.1
		c0-2.24-0.19-2.88-1.41-3.07c0-0.13,0-0.51,0-0.51l6.02-1.35h0.45V72.1C267.81,74.34,268.26,75.3,269.22,75.87z"/>
	<path class="st0" d="M304.86,66.14c-0.39,4.54-4.42,10.56-13.5,10.56c-8.83,0-17.34-4.35-17.6-14.91
		c-0.32-11.07,9.73-15.87,16.77-16.26c5.44-0.26,12.93,2.37,13.82,10.11c-0.57,0-4.54,0-4.54,0h-1.41
		C302.05,56.61,305.37,60.32,304.86,66.14z M295.77,55.65H279.2c-0.83,3.39-0.64,7.17,0.45,10.24c2.37,6.72,7.17,9.67,13.7,9.4
		c5.5-0.26,10.3-4.03,10.94-9.02C305.05,59.62,300.64,55.65,295.77,55.65z M279.33,55.13h20.42c-0.83-5.57-5.82-10.05-12.09-8.83
		C283.29,47.13,280.48,50.79,279.33,55.13z"/>
	<path class="st0" d="M371.58,75.87c0,0.13,0,0.45,0,0.45h-7.94c0,0,0-0.32,0-0.45c1.02-0.57,1.28-1.67,1.09-3.78
		c-0.19-2.11-1.15-12.93-1.47-16.26c-0.45-4.8-2.81-10.24-8.32-9.15c-7.17,1.41-8.51,14.78-8.51,20.16v5.25
		c0,2.24,0.45,3.2,1.47,3.78c0,0.13,0,0.45,0,0.45h-7.94c0,0,0-0.32,0-0.45c0.96-0.57,1.41-1.54,1.41-3.78V50.47
		c0-2.24-0.19-2.88-1.41-3.07c0-0.13,0-0.45,0-0.45l6.02-1.41h0.45v15.87c0.83-7.17,3.01-15.87,11.33-15.87
		c5.25,0,9.73,3.58,10.5,11.26c0.64,6.21,1.28,12.93,1.54,15.29C370.04,74.4,370.62,75.3,371.58,75.87z"/>
	<path class="st0" d="M322.99,76.93c-8.74,0-15.85-7.11-15.85-15.85c0-8.74,7.11-15.85,15.85-15.85c8.74,0,15.85,7.11,15.85,15.85
		S331.73,76.93,322.99,76.93z M322.99,45.83c-8.41,0-15.24,6.84-15.24,15.24s6.84,15.25,15.24,15.25c8.4,0,15.24-6.84,15.24-15.25
		C338.23,52.68,331.39,45.83,322.99,45.83z"/>
	<g>
		<path class="st0" d="M326.71,61.09c0,5.32-4.31,9.63-9.63,9.63c-5.33,0-9.64-4.31-9.64-9.63c0,3.26,2.65,5.91,5.91,5.91
			s5.91-2.64,5.91-5.91c0-3.26-2.65-5.91-5.91-5.91s-5.91,2.65-5.91,5.91c0-5.33,4.31-9.64,9.64-9.64
			C322.4,51.45,326.71,55.76,326.71,61.09z"/>
		<path class="st0" d="M317.08,71.02c-5.48,0-9.94-4.45-9.94-9.93c0-5.48,4.46-9.94,9.94-9.94s9.93,4.46,9.93,9.94
			C327.02,66.56,322.56,71.02,317.08,71.02z M308.69,65.18c1.52,3.1,4.71,5.24,8.39,5.24c5.15,0,9.33-4.19,9.33-9.33
			c0-5.15-4.19-9.34-9.33-9.34c-3.68,0-6.87,2.14-8.39,5.24c1.14-1.3,2.81-2.11,4.66-2.11c3.43,0,6.21,2.79,6.21,6.21
			s-2.79,6.2-6.21,6.2C311.5,67.29,309.83,66.47,308.69,65.18z M307.74,61.09c0,3.09,2.52,5.6,5.61,5.6c3.1,0,5.61-2.51,5.61-5.6
			c0-3.1-2.52-5.61-5.61-5.61C310.26,55.47,307.74,57.99,307.74,61.09z"/>
	</g>
	<g>
		<path class="st0" d="M332.63,67.54c-3.43,0-6.21-2.78-6.21-6.21s2.78-6.21,6.21-6.21s6.21,2.78,6.21,6.21
			C338.83,64.75,336.05,67.54,332.63,67.54z M332.63,55.72c-3.09,0-5.61,2.52-5.61,5.61c0,3.09,2.52,5.61,5.61,5.61
			s5.61-2.52,5.61-5.61C338.23,58.24,335.72,55.72,332.63,55.72z"/>
		<path class="st0" d="M332.63,62.79c-0.8,0-1.46-0.66-1.46-1.46c0-0.8,0.66-1.46,1.46-1.46s1.46,0.66,1.46,1.46
			C334.09,62.13,333.43,62.79,332.63,62.79z M332.63,60.47c-0.48,0-0.86,0.39-0.86,0.86s0.39,0.86,0.86,0.86s0.86-0.39,0.86-0.86
			S333.1,60.47,332.63,60.47z"/>
	</g>
</g>
</svg>
